<svg xmlns="http://www.w3.org/2000/svg" xmlns:xlink="http://www.w3.org/1999/xlink" width="15" height="12.463" viewBox="0 0 15 12.463">
  <defs>
    <linearGradient id="linear-gradient" y1="0.5" x2="1" y2="0.5" gradientUnits="objectBoundingBox">
      <stop offset="0" stop-color="#ffaf34"/>
      <stop offset="1" stop-color="#e4461a"/>
    </linearGradient>
    <linearGradient id="linear-gradient-2" x1="-11.268" y1="-3.749" x2="-10.268" y2="-3.749" xlink:href="#linear-gradient"/>
  </defs>
  <g id="Group_17" data-name="Group 17" transform="translate(-998 -565)">
    <path id="Path_14" data-name="Path 14" d="M.555,6.646a3.063,3.063,0,0,1,.453-.69,3.443,3.443,0,0,1,.849-.683,5.928,5.928,0,0,1,1.059-.516A9.244,9.244,0,0,1,4.09,4.385a11.947,11.947,0,0,1,1.231-.243A12.541,12.541,0,0,1,7.11,4.013l-.015.716L9.743,3.355,7.095,1.895v.751c-.192,0-.446-.007-.744.008a9.23,9.23,0,0,0-1.7.243,8.761,8.761,0,0,0-1.589.544A6.148,6.148,0,0,0,1.9,4.1,3.533,3.533,0,0,0,.813,5.23a2.149,2.149,0,0,0-.272.744A1.969,1.969,0,0,0,.555,6.646Z" transform="translate(997.481 563.105)" fill="url(#linear-gradient)"/>
    <path id="Path_15" data-name="Path 15" d="M15.445,3.248a3.063,3.063,0,0,1-.453.69,3.467,3.467,0,0,1-.849.683,6.068,6.068,0,0,1-1.059.516,9.244,9.244,0,0,1-1.174.372,11.947,11.947,0,0,1-1.231.243,12.541,12.541,0,0,1-1.789.129L8.9,5.165,6.257,6.539,8.9,8V7.247c.192.006.446.008.744-.007A9.23,9.23,0,0,0,11.352,7a8.844,8.844,0,0,0,1.589-.544A6.148,6.148,0,0,0,14.1,5.8a3.533,3.533,0,0,0,1.087-1.131,2.149,2.149,0,0,0,.272-.744A1.969,1.969,0,0,0,15.445,3.248Z" transform="translate(997.481 563.105)" fill="url(#linear-gradient-2)"/>
    <text id="tradey" transform="translate(998 571.463)" fill="#161615" font-size="4.46" font-family="Montserrat-SemiBold, Montserrat" font-weight="600"><tspan x="0" y="4">tradey</tspan></text>
  </g>
</svg>
